<svg width="345" height="47" viewBox="0 0 345 47" fill="none" xmlns="http://www.w3.org/2000/svg">
<path d="M0.575271 1.43568H10.6765V46H0.575271V1.43568ZM61.0783 39.3451L57.5726 39.8798V1.43568H67.3767V46H54.6016L26.0805 7.55585L29.5268 7.02107V46H19.782V1.43568H32.8542L61.0783 39.3451ZM76.4739 1.43568H86.5751V46H76.4739V1.43568ZM124.261 24.0149L125.212 21.9947C128.658 22.0739 131.51 22.6285 133.768 23.6584C136.026 24.6487 137.69 26.0154 138.759 27.7583C139.829 29.4617 140.364 31.4225 140.364 33.6408C140.364 36.0176 139.789 38.1369 138.641 39.9987C137.531 41.8605 135.888 43.3261 133.709 44.3957C131.53 45.4652 128.797 46 125.509 46H94.2546L97.7009 23.1236L94.2546 1.43568H124.38C128.5 1.43568 131.689 2.40619 133.947 4.34721C136.244 6.24862 137.393 8.88287 137.393 12.25C137.393 14.0721 136.957 15.8349 136.086 17.5383C135.254 19.2416 133.867 20.6875 131.926 21.8758C130.025 23.0246 127.47 23.7376 124.261 24.0149ZM104.237 43.445L100.375 38.5726H123.429C125.568 38.5726 127.212 38.0775 128.361 37.0871C129.55 36.0572 130.144 34.6311 130.144 32.809C130.144 30.9472 129.47 29.4815 128.123 28.4119C126.777 27.3028 124.796 26.7482 122.182 26.7482H103.405V19.4991H120.993C122.776 19.4991 124.241 19.0039 125.39 18.0136C126.579 16.9837 127.173 15.5576 127.173 13.7354C127.173 12.349 126.678 11.2002 125.687 10.2891C124.697 9.33842 123.271 8.86307 121.409 8.86307H100.375L104.237 3.9907L107.386 23.1236L104.237 43.445ZM195.282 27.8772C194.847 31.6404 193.52 34.9679 191.301 37.8596C189.123 40.7117 186.231 42.93 182.626 44.5145C179.061 46.099 174.981 46.8913 170.386 46.8913C165.315 46.8913 160.859 45.9208 157.016 43.9798C153.214 42.0387 150.243 39.3451 148.104 35.8988C145.965 32.4128 144.895 28.3525 144.895 23.7178C144.895 19.0831 145.965 15.0427 148.104 11.5963C150.243 8.11042 153.214 5.39695 157.016 3.45593C160.859 1.5149 165.315 0.54439 170.386 0.54439C174.981 0.54439 179.061 1.33665 182.626 2.92116C186.231 4.50566 189.123 6.72398 191.301 9.57609C193.52 12.4282 194.847 15.7557 195.282 19.5585H185.122C184.726 17.459 183.874 15.6566 182.567 14.1514C181.259 12.6065 179.576 11.4181 177.516 10.5862C175.456 9.75435 173.06 9.33842 170.326 9.33842C167.197 9.33842 164.483 9.93261 162.186 11.121C159.928 12.2698 158.185 13.9335 156.957 16.1122C155.729 18.2513 155.115 20.7865 155.115 23.7178C155.115 26.6492 155.729 29.2042 156.957 31.3829C158.185 33.522 159.928 35.1857 162.186 36.3741C164.483 37.5229 167.197 38.0973 170.326 38.0973C173.06 38.0973 175.456 37.7011 177.516 36.9089C179.576 36.077 181.259 34.9084 182.567 33.4032C183.874 31.8583 184.726 30.0163 185.122 27.8772H195.282ZM206.973 36.6118V28.4119H237.871V36.6118H206.973ZM229.136 1.43568L249.992 46H239.237L220.996 5.53559H224.323L206.081 46H195.326L216.183 1.43568H229.136ZM279.092 1.43568C282.617 1.43568 285.667 2.04967 288.242 3.27767C290.817 4.50566 292.778 6.22882 294.125 8.44713C295.511 10.6654 296.204 13.2403 296.204 16.1716C296.204 19.103 295.511 21.6778 294.125 23.8961C292.778 26.0748 290.817 27.798 288.242 29.0656C285.667 30.2936 282.617 30.9075 279.092 30.9075H259.424V22.5889H278.557C280.894 22.5889 282.716 22.0145 284.023 20.8657C285.37 19.717 286.044 18.1522 286.044 16.1716C286.044 14.1514 285.37 12.5867 284.023 11.4775C282.716 10.3287 280.894 9.75435 278.557 9.75435H260.315L264.89 4.9414V46H254.789V1.43568H279.092ZM299.704 31.4423H309.924C310.162 32.9476 310.815 34.2746 311.885 35.4234C312.994 36.5326 314.46 37.404 316.282 38.0378C318.144 38.632 320.283 38.9291 322.699 38.9291C326.225 38.9291 328.998 38.434 331.018 37.4436C333.078 36.4137 334.108 34.9877 334.108 33.1655C334.108 31.7394 333.513 30.6501 332.325 29.8974C331.176 29.1052 329.017 28.5308 325.848 28.1743L316.876 27.1641C311.093 26.5303 306.894 25.1835 304.279 23.1236C301.704 21.0242 300.417 18.1126 300.417 14.389C300.417 11.4577 301.269 8.9621 302.972 6.90223C304.715 4.84237 307.151 3.27767 310.281 2.20812C313.41 1.09897 317.094 0.54439 321.333 0.54439C325.452 0.54439 329.116 1.15839 332.325 2.38638C335.534 3.57476 338.089 5.2583 339.99 7.43701C341.892 9.57609 342.921 12.0915 343.08 14.9832H332.86C332.662 13.676 332.068 12.547 331.077 11.5963C330.127 10.606 328.8 9.85338 327.096 9.33842C325.393 8.78384 323.392 8.50655 321.095 8.50655C317.886 8.50655 315.331 8.9819 313.43 9.93261C311.528 10.8833 310.578 12.2301 310.578 13.9731C310.578 15.3199 311.132 16.3697 312.241 17.1223C313.39 17.8353 315.391 18.3701 318.243 18.7266L327.572 19.8556C331.691 20.2913 334.959 21.0044 337.376 21.9947C339.832 22.9454 341.575 24.2328 342.605 25.8569C343.674 27.481 344.209 29.5409 344.209 32.0365C344.209 35.0075 343.298 37.6219 341.476 39.8798C339.693 42.0981 337.178 43.8213 333.929 45.0493C330.681 46.2773 326.878 46.8913 322.521 46.8913C318.084 46.8913 314.182 46.2575 310.815 44.9899C307.448 43.6827 304.794 41.8803 302.853 39.5827C300.912 37.2456 299.862 34.5321 299.704 31.4423Z" fill="white"/>
</svg>
